{
  "accessors": [
    {
      "bufferView": 0,
      "byteOffset": 0,
      "componentType": 5126,
      "count": 14084,
      "max": [
        4.98904752731323,
        2.27061057090759,
        2.57447481155396
      ],
      "min": [
        -4.98904752731323,
        -2.58151245117188,
        -3.9038417339325
      ],
      "type": "VEC3"
    },
    {
      "bufferView": 0,
      "byteOffset": 169008,
      "componentType": 5126,
      "count": 14084,
      "max": [
        1,
        1,
        1
      ],
      "min": [
        -1,
        -1,
        -1
      ],
      "type": "VEC3"
    },
    {
      "bufferView": 0,
      "byteOffset": 338016,
      "componentType": 5126,
      "count": 14084,
      "max": [
        0.999370336532593,
        1
      ],
      "min": [
        -0.00941954739391804,
        0.023792624473572
      ],
      "type": "VEC2"
    },
    {
      "bufferView": 2,
      "byteOffset": 0,
      "componentType": 5123,
      "count": 64347,
      "max": [
        14083
      ],
      "min": [
        0
      ],
      "type": "SCALAR"
    },
    {
      "bufferView": 0,
      "byteOffset": 450688,
      "componentType": 5126,
      "count": 441,
      "max": [
        0.0711782798171043,
        1.99662244319916,
        -3.33841419219971
      ],
      "min": [
        -0.0711782798171043,
        0.815384745597839,
        -3.72065544128418
      ],
      "type": "VEC3"
    },
    {
      "bufferView": 0,
      "byteOffset": 455980,
      "componentType": 5126,
      "count": 441,
      "max": [
        0.997693240642548,
        1,
        1
      ],
      "min": [
        -0.997693240642548,
        -1,
        -0.999987721443176
      ],
      "type": "VEC3"
    },
    {
      "bufferView": 0,
      "byteOffset": 461272,
      "componentType": 5126,
      "count": 441,
      "max": [
        0.31103515625,
        0.76806640625
      ],
      "min": [
        0,
        0.386225163936615
      ],
      "type": "VEC2"
    },
    {
      "bufferView": 2,
      "byteOffset": 128694,
      "componentType": 5123,
      "count": 1701,
      "max": [
        440
      ],
      "min": [
        0
      ],
      "type": "SCALAR"
    },
    {
      "bufferView": 0,
      "byteOffset": 464800,
      "componentType": 5126,
      "count": 813,
      "max": [
        0.636241614818573,
        1.88553202152252,
        0.995565414428711
      ],
      "min": [
        -0.636241614818573,
        0.712114274501801,
        -1.13005185127258
      ],
      "type": "VEC3"
    },
    {
      "bufferView": 0,
      "byteOffset": 474556,
      "componentType": 5126,
      "count": 813,
      "max": [
        0.999821543693542,
        0.999307692050934,
        0.935747265815735
      ],
      "min": [
        -0.999821543693542,
        -0.175515428185463,
        -0.999997675418854
      ],
      "type": "VEC3"
    },
    {
      "bufferView": 0,
      "byteOffset": 484312,
      "componentType": 5126,
      "count": 813,
      "max": [
        0.267983883619308,
        0.16748046875
      ],
      "min": [
        0.103515625,
        0.0030121803283690296
      ],
      "type": "VEC2"
    },
    {
      "bufferView": 2,
      "byteOffset": 132096,
      "componentType": 5123,
      "count": 4623,
      "max": [
        812
      ],
      "min": [
        0
      ],
      "type": "SCALAR"
    },
    {
      "bufferView": 0,
      "byteOffset": 490816,
      "componentType": 5126,
      "count": 283,
      "max": [
        -0.519913256168365,
        0.51553612947464,
        -3.0764172077179
      ],
      "min": [
        -1.76239800453186,
        0.315510451793671,
        -3.5057578086853
      ],
      "type": "VEC3"
    },
    {
      "bufferView": 0,
      "byteOffset": 494212,
      "componentType": 5126,
      "count": 283,
      "max": [
        0.998907029628754,
        0.985828101634979,
        0.998783767223358
      ],
      "min": [
        -0.978240311145782,
        -0.998000264167786,
        -0.874495685100555
      ],
      "type": "VEC3"
    },
    {
      "bufferView": 0,
      "byteOffset": 497608,
      "componentType": 5126,
      "count": 283,
      "max": [
        0.899646699428558,
        0.9845500569790602
      ],
      "min": [
        -0.00160087656695396,
        0.15898197889328003
      ],
      "type": "VEC2"
    },
    {
      "bufferView": 2,
      "byteOffset": 141342,
      "componentType": 5123,
      "count": 939,
      "max": [
        282
      ],
      "min": [
        0
      ],
      "type": "SCALAR"
    },
    {
      "bufferView": 0,
      "byteOffset": 499872,
      "componentType": 5126,
      "count": 283,
      "max": [
        1.76239800453186,
        0.51553612947464,
        -3.0764172077179
      ],
      "min": [
        0.519913256168365,
        0.315510451793671,
        -3.5057578086853
      ],
      "type": "VEC3"
    },
    {
      "bufferView": 0,
      "byteOffset": 503268,
      "componentType": 5126,
      "count": 283,
      "max": [
        0.978240311145782,
        0.985828101634979,
        0.998783767223358
      ],
      "min": [
        -0.998907029628754,
        -0.998000264167786,
        -0.874495685100555
      ],
      "type": "VEC3"
    },
    {
      "bufferView": 0,
      "byteOffset": 506664,
      "componentType": 5126,
      "count": 283,
      "max": [
        0.899646699428558,
        0.9845500569790602
      ],
      "min": [
        -0.00160087656695396,
        0.15898197889328003
      ],
      "type": "VEC2"
    },
    {
      "bufferView": 2,
      "byteOffset": 143220,
      "componentType": 5123,
      "count": 912,
      "max": [
        282
      ],
      "min": [
        0
      ],
      "type": "SCALAR"
    },
    {
      "bufferView": 0,
      "byteOffset": 508928,
      "componentType": 5126,
      "count": 567,
      "max": [
        -2.51156067848206,
        -0.205040067434311,
        0.19898921251297
      ],
      "min": [
        -4.78625965118408,
        -0.39427524805069,
        -0.55210268497467
      ],
      "type": "VEC3"
    },
    {
      "bufferView": 0,
      "byteOffset": 515732,
      "componentType": 5126,
      "count": 567,
      "max": [
        0.986901223659515,
        0.978670299053192,
        0.986686706542969
      ],
      "min": [
        -0.998295664787292,
        -0.998686730861664,
        -0.90684175491333
      ],
      "type": "VEC3"
    },
    {
      "bufferView": 0,
      "byteOffset": 522536,
      "componentType": 5126,
      "count": 567,
      "max": [
        0.849617183208466,
        0.99169921875
      ],
      "min": [
        0.00048828125,
        0.274993658065796
      ],
      "type": "VEC2"
    },
    {
      "bufferView": 2,
      "byteOffset": 145044,
      "componentType": 5123,
      "count": 2052,
      "max": [
        566
      ],
      "min": [
        0
      ],
      "type": "SCALAR"
    },
    {
      "bufferView": 0,
      "byteOffset": 527072,
      "componentType": 5126,
      "count": 567,
      "max": [
        4.78625965118408,
        -0.205040067434311,
        0.19898921251297
      ],
      "min": [
        2.51156067848206,
        -0.39427524805069,
        -0.55210268497467
      ],
      "type": "VEC3"
    },
    {
      "bufferView": 0,
      "byteOffset": 533876,
      "componentType": 5126,
      "count": 567,
      "max": [
        0.998295664787292,
        0.978670299053192,
        0.986686706542969
      ],
      "min": [
        -0.986901223659515,
        -0.998686730861664,
        -0.90684175491333
      ],
      "type": "VEC3"
    },
    {
      "bufferView": 0,
      "byteOffset": 540680,
      "componentType": 5126,
      "count": 567,
      "max": [
        0.849617183208466,
        0.99169921875
      ],
      "min": [
        0.00048828125,
        0.274993658065796
      ],
      "type": "VEC2"
    },
    {
      "bufferView": 2,
      "byteOffset": 149148,
      "componentType": 5123,
      "count": 2043,
      "max": [
        566
      ],
      "min": [
        0
      ],
      "type": "SCALAR"
    },
    {
      "bufferView": 0,
      "byteOffset": 545216,
      "componentType": 5126,
      "count": 1173,
      "max": [
        1.78988111019135,
        0.509009063243866,
        3.31023263931274
      ],
      "min": [
        -1.78988111019135,
        -0.509009182453156,
        2.6020872592926
      ],
      "type": "VEC3"
    },
    {
      "bufferView": 0,
      "byteOffset": 559292,
      "componentType": 5126,
      "count": 1173,
      "max": [
        0.999036550521851,
        0.999036967754364,
        1
      ],
      "min": [
        -0.999036550521851,
        -0.999036848545074,
        -0.999951183795929
      ],
      "type": "VEC3"
    },
    {
      "bufferView": 0,
      "byteOffset": 573368,
      "componentType": 5126,
      "count": 1173,
      "max": [
        0.995284378528595,
        1.0000000003157155
      ],
      "min": [
        0,
        0.04198896884918202
      ],
      "type": "VEC2"
    },
    {
      "bufferView": 2,
      "byteOffset": 153234,
      "componentType": 5123,
      "count": 5184,
      "max": [
        1172
      ],
      "min": [
        0
      ],
      "type": "SCALAR"
    },
    {
      "bufferView": 1,
      "byteOffset": 0,
      "componentType": 5126,
      "count": 20,
      "max": [
        0.9666666666666668
      ],
      "min": [
        0.016666666666666666
      ],
      "type": "SCALAR"
    },
    {
      "bufferView": 1,
      "byteOffset": 80,
      "componentType": 5126,
      "count": 20,
      "max": [
        0,
        0,
        0
      ],
      "min": [
        0,
        0,
        0
      ],
      "type": "VEC3"
    },
    {
      "bufferView": 1,
      "byteOffset": 320,
      "componentType": 5126,
      "count": 20,
      "max": [
        8.65879350496965e-17,
        8.323393893636707e-17,
        0.9996455697870111,
        1
      ],
      "min": [
        -1.491142189360091e-17,
        -8.640386805365542e-17,
        -0.8183055156845476,
        -0.4845496541837363
      ],
      "type": "VEC4"
    },
    {
      "bufferView": 1,
      "byteOffset": 640,
      "componentType": 5126,
      "count": 20,
      "max": [
        1.0000000000000002,
        1.0000000000000002,
        1
      ],
      "min": [
        0.9999999999999999,
        0.9999999999999999,
        1
      ],
      "type": "VEC3"
    }
  ],
  "animations": [
    {
      "channels": [
        {
          "sampler": 0,
          "target": {
            "node": 7,
            "path": "rotation"
          }
        },
        {
          "sampler": 1,
          "target": {
            "node": 7,
            "path": "scale"
          }
        },
        {
          "sampler": 2,
          "target": {
            "node": 7,
            "path": "translation"
          }
        }
      ],
      "name": "Main",
      "samplers": [
        {
          "input": 32,
          "interpolation": "LINEAR",
          "output": 34
        },
        {
          "input": 32,
          "interpolation": "LINEAR",
          "output": 35
        },
        {
          "input": 32,
          "interpolation": "LINEAR",
          "output": 33
        }
      ]
    }
  ],
  "asset": {
    "generator": "qtek fbx2gltf",
    "version": "2.0"
  },
  "bufferViews": [
    {
      "buffer": 0,
      "byteLength": 582752,
      "byteOffset": 0,
      "target": 34962
    },
    {
      "buffer": 0,
      "byteLength": 880,
      "byteOffset": 582752,
      "target": 34962
    },
    {
      "buffer": 0,
      "byteLength": 163602,
      "byteOffset": 583632,
      "target": 34963
    }
  ],
  "buffers": [
    {
      "byteLength": 747234,
      "uri": "plane.bin"
    }
  ],
  "materials": [
    {
      "name": "Default",
      "emissiveFactor": [
        0,
        0,
        0
      ],
      "pbrMetallicRoughness": {
        "baseColorFactor": [
          0.9019607843137255,
          0,
          0,
          1
        ],
        "metallicFactor": 0,
        "roughnessFactor": 0.8213901449934544
      }
    }
  ],
  "meshes": [
    {
      "name": "Body",
      "primitives": [
        {
          "attributes": {
            "NORMAL": 1,
            "POSITION": 0,
            "TEXCOORD_0": 2
          },
          "indices": 3,
          "material": 0
        }
      ]
    },
    {
      "name": "rudder",
      "primitives": [
        {
          "attributes": {
            "NORMAL": 5,
            "POSITION": 4,
            "TEXCOORD_0": 6
          },
          "indices": 7,
          "material": 0
        }
      ]
    },
    {
      "name": "canopi",
      "primitives": [
        {
          "attributes": {
            "NORMAL": 9,
            "POSITION": 8,
            "TEXCOORD_0": 10
          },
          "indices": 11,
          "material": 0
        }
      ]
    },
    {
      "name": "tail_L1",
      "primitives": [
        {
          "attributes": {
            "NORMAL": 13,
            "POSITION": 12,
            "TEXCOORD_0": 14
          },
          "indices": 15,
          "material": 0
        }
      ]
    },
    {
      "name": "tail_L",
      "primitives": [
        {
          "attributes": {
            "NORMAL": 17,
            "POSITION": 16,
            "TEXCOORD_0": 18
          },
          "indices": 19,
          "material": 0
        }
      ]
    },
    {
      "name": "aileron_R",
      "primitives": [
        {
          "attributes": {
            "NORMAL": 21,
            "POSITION": 20,
            "TEXCOORD_0": 22
          },
          "indices": 23,
          "material": 0
        }
      ]
    },
    {
      "name": "aileron_L",
      "primitives": [
        {
          "attributes": {
            "NORMAL": 25,
            "POSITION": 24,
            "TEXCOORD_0": 26
          },
          "indices": 27,
          "material": 0
        }
      ]
    },
    {
      "name": "propeller1",
      "primitives": [
        {
          "attributes": {
            "NORMAL": 29,
            "POSITION": 28,
            "TEXCOORD_0": 30
          },
          "indices": 31,
          "material": 0
        }
      ]
    }
  ],
  "nodes": [
    {
      "children": [
        1,
        2,
        3,
        4,
        5,
        6,
        7
      ],
      "matrix": [
        1,
        0,
        0,
        0,
        0,
        1,
        0,
        0,
        0,
        0,
        1,
        0,
        0,
        0,
        0,
        1
      ],
      "mesh": 0,
      "name": "Body"
    },
    {
      "matrix": [
        0.9999025240093042,
        0,
        0.013962180339145272,
        0,
        0,
        1,
        0,
        0,
        -0.013962180339145272,
        0,
        0.9999025240093042,
        0,
        -0.04677330330014229,
        0,
        -0.00032654457027092576,
        1
      ],
      "mesh": 1,
      "name": "rudder"
    },
    {
      "matrix": [
        1,
        0,
        0,
        0,
        0,
        1,
        0,
        0,
        0,
        0,
        1,
        0,
        0,
        0,
        0,
        1
      ],
      "mesh": 2,
      "name": "canopi"
    },
    {
      "matrix": [
        1,
        0,
        0,
        0,
        0,
        1,
        0,
        0,
        0,
        0,
        1,
        0,
        1.1102230246251565e-16,
        0,
        -4.440892098500626e-16,
        1
      ],
      "mesh": 3,
      "name": "tail_L1"
    },
    {
      "matrix": [
        1,
        0,
        0,
        0,
        0,
        1,
        0,
        0,
        0,
        0,
        1,
        0,
        -1.1102230246251565e-16,
        0,
        -4.440892098500626e-16,
        1
      ],
      "mesh": 4,
      "name": "tail_L"
    },
    {
      "matrix": [
        1,
        0,
        0,
        0,
        0,
        1,
        0,
        0,
        0,
        0,
        1,
        0,
        -0.0011723041534423828,
        0.012324333190917969,
        0.007395744323730469,
        1
      ],
      "mesh": 5,
      "name": "aileron_R"
    },
    {
      "matrix": [
        1,
        0,
        0,
        0,
        0,
        1,
        0,
        0,
        0,
        0,
        1,
        0,
        -4.440892098500626e-16,
        0,
        -1.1102230246251565e-16,
        1
      ],
      "mesh": 6,
      "name": "aileron_L"
    },
    {
      "matrix": [
        1,
        0,
        0,
        0,
        0,
        1,
        0,
        0,
        0,
        0,
        1,
        0,
        0,
        0,
        0,
        1
      ],
      "mesh": 7,
      "name": "propeller1"
    }
  ],
  "scene": 0,
  "scenes": [
    {
      "nodes": [
        0
      ]
    }
  ],
  "extras": {
    "qtekModelViewerConfig": {
      "preZ": true,
      "materials": [
        {
          "name": "Default",
          "color": "#e60000",
          "emission": "#000000",
          "alpha": 1,
          "alphaCutoff": 0,
          "emissionIntensity": 1,
          "uvRepeat": {
            "0": 1,
            "1": 1
          },
          "parallaxOcclusionScale": 0.02,
          "diffuseMap": "",
          "normalMap": "",
          "parallaxOcclusionMap": "",
          "emissiveMap": "",
          "metalness": 0,
          "roughness": 0.8213901449934544,
          "metalnessMap": "",
          "roughnessMap": "",
          "type": "pbrMetallicRoughness",
          "targetMeshes": [
            "Body",
            "rudder",
            "canopi",
            "tail_L1",
            "tail_L",
            "aileron_R",
            "aileron_L",
            "propeller1"
          ]
        }
      ],
      "takes": [],
      "textureFlipY": false,
      "zUpToYUp": false,
      "shadow": true,
      "environment": "auto",
      "viewControl": {
        "center": [
          0.2793349027633667,
          -0.9211012721061707,
          -0.13233229517936707
        ],
        "alpha": 17.08188258759145,
        "beta": 775.0510513411052,
        "distance": 9.91364389883026
      },
      "ground": {
        "show": true
      },
      "mainLight": {
        "shadow": true,
        "shadowQuality": "medium",
        "intensity": 0.8,
        "color": "#fff",
        "alpha": 45,
        "beta": 45,
        "$padAngle": [
          0.25,
          0.5
        ]
      },
      "secondaryLight": {
        "shadow": false,
        "shadowQuality": "medium",
        "intensity": 0,
        "color": "#fff",
        "alpha": 60,
        "beta": -50,
        "$padAngle": [
          -0.2777777777777778,
          0.6666666666666666
        ]
      },
      "tertiaryLight": {
        "shadow": false,
        "shadowQuality": "medium",
        "intensity": 0,
        "color": "#fff",
        "alpha": 89,
        "beta": 0,
        "$padAngle": [
          0,
          0.9888888888888889
        ]
      },
      "ambientLight": {
        "intensity": 0,
        "color": "#fff"
      },
      "ambientCubemapLight": {
        "texture": "./asset/texture/Factory_Catwalk.hdr",
        "$texture": "Factory_Catwalk",
        "$textureOptions": [
          "pisa",
          "Barce_Rooftop_C",
          "Factory_Catwalk",
          "Grand_Canyon_C",
          "Ice_Lake",
          "Hall",
          "Old_Industrial_Hall"
        ],
        "exposure": 3,
        "diffuseIntensity": 0.2,
        "specularIntensity": 0.2,
        "$intensity": 0.2
      },
      "postEffect": {
        "enable": true,
        "bloom": {
          "enable": true,
          "intensity": 0.1
        },
        "depthOfField": {
          "enable": false,
          "focalDistance": 4,
          "focalRange": 1,
          "blurRadius": 5,
          "fstop": 10,
          "quality": "medium",
          "$qualityOptions": [
            "low",
            "medium",
            "high",
            "ultra"
          ]
        },
        "screenSpaceAmbientOcclusion": {
          "enable": true,
          "radius": 1.5,
          "quality": "medium",
          "intensity": 1,
          "$qualityOptions": [
            "low",
            "medium",
            "high",
            "ultra"
          ]
        },
        "screenSpaceReflection": {
          "enable": false,
          "quality": "high",
          "maxRoughness": 0.2,
          "$qualityOptions": [
            "low",
            "medium",
            "high",
            "ultra"
          ]
        },
        "colorCorrection": {
          "enable": true,
          "exposure": 0,
          "brightness": 0,
          "contrast": 1,
          "saturation": 1,
          "lookupTexture": ""
        },
        "FXAA": {
          "enable": false
        }
      }
    }
  },
  "extensionsUsed": [
    "KHR_materials_pbrSpecularGlossiness"
  ]
}