{
  "accessors": [
    {
      "bufferView": 0,
      "componentType": 5125,
      "count": 1692,
      "type": "SCALAR"
    },
    {
      "bufferView": 1,
      "componentType": 5126,
      "count": 427,
      "max": [
        0.0142461098730564,
        0.431359589099884,
        -0.609487771987915
      ],
      "min": [
        -0.0142849255353212,
        0.194593369960785,
        -0.686266243457794
      ],
      "type": "VEC3"
    },
    {
      "bufferView": 2,
      "componentType": 5126,
      "count": 427,
      "type": "VEC3"
    },
    {
      "bufferView": 3,
      "componentType": 5126,
      "count": 427,
      "type": "VEC2"
    },
    {
      "bufferView": 4,
      "componentType": 5125,
      "count": 4704,
      "type": "SCALAR"
    },
    {
      "bufferView": 5,
      "componentType": 5126,
      "count": 870,
      "max": [
        0.127527669072151,
        0.409092664718628,
        0.259041458368301
      ],
      "min": [
        -0.127527669072151,
        0.173893943428993,
        -0.16701528429985
      ],
      "type": "VEC3"
    },
    {
      "bufferView": 6,
      "componentType": 5126,
      "count": 870,
      "type": "VEC3"
    },
    {
      "bufferView": 7,
      "componentType": 5126,
      "count": 870,
      "type": "VEC2"
    },
    {
      "bufferView": 8,
      "componentType": 5125,
      "count": 921,
      "type": "SCALAR"
    },
    {
      "bufferView": 9,
      "componentType": 5126,
      "count": 301,
      "max": [
        -0.104210928082466,
        0.134491994976997,
        -0.557142913341522
      ],
      "min": [
        -0.353253424167633,
        0.0943990349769592,
        -0.643199563026428
      ],
      "type": "VEC3"
    },
    {
      "bufferView": 10,
      "componentType": 5126,
      "count": 301,
      "type": "VEC3"
    },
    {
      "bufferView": 11,
      "componentType": 5126,
      "count": 301,
      "type": "VEC2"
    },
    {
      "bufferView": 12,
      "componentType": 5125,
      "count": 921,
      "type": "SCALAR"
    },
    {
      "bufferView": 13,
      "componentType": 5126,
      "count": 303,
      "max": [
        0.353253424167633,
        0.134491994976997,
        -0.557142913341522
      ],
      "min": [
        0.104210928082466,
        0.0943990349769592,
        -0.643199563026428
      ],
      "type": "VEC3"
    },
    {
      "bufferView": 14,
      "componentType": 5126,
      "count": 303,
      "type": "VEC3"
    },
    {
      "bufferView": 15,
      "componentType": 5126,
      "count": 303,
      "type": "VEC2"
    },
    {
      "bufferView": 16,
      "componentType": 5125,
      "count": 2040,
      "type": "SCALAR"
    },
    {
      "bufferView": 17,
      "componentType": 5126,
      "count": 598,
      "max": [
        -0.503649830818176,
        -0.00746934441849589,
        0.100858859717846
      ],
      "min": [
        -0.959588348865509,
        -0.0453994683921337,
        -0.0496893003582954
      ],
      "type": "VEC3"
    },
    {
      "bufferView": 18,
      "componentType": 5126,
      "count": 598,
      "type": "VEC3"
    },
    {
      "bufferView": 19,
      "componentType": 5126,
      "count": 598,
      "type": "VEC2"
    },
    {
      "bufferView": 20,
      "componentType": 5125,
      "count": 2040,
      "type": "SCALAR"
    },
    {
      "bufferView": 21,
      "componentType": 5126,
      "count": 598,
      "max": [
        0.959353387355804,
        -0.00993962213397026,
        0.0993764623999596
      ],
      "min": [
        0.503414869308472,
        -0.0478697456419468,
        -0.0511716976761818
      ],
      "type": "VEC3"
    },
    {
      "bufferView": 22,
      "componentType": 5126,
      "count": 598,
      "type": "VEC3"
    },
    {
      "bufferView": 23,
      "componentType": 5126,
      "count": 598,
      "type": "VEC2"
    },
    {
      "bufferView": 24,
      "componentType": 5125,
      "count": 5184,
      "type": "SCALAR"
    },
    {
      "bufferView": 25,
      "componentType": 5126,
      "count": 1178,
      "max": [
        0.358762085437775,
        0.133183717727661,
        0.722991168498993
      ],
      "min": [
        -0.358762085437775,
        -0.0708669051527977,
        0.581051170825958
      ],
      "type": "VEC3"
    },
    {
      "bufferView": 26,
      "componentType": 5126,
      "count": 1178,
      "type": "VEC3"
    },
    {
      "bufferView": 27,
      "componentType": 5126,
      "count": 1178,
      "type": "VEC2"
    },
    {
      "bufferView": 28,
      "componentType": 5125,
      "count": 64332,
      "type": "SCALAR"
    },
    {
      "bufferView": 29,
      "componentType": 5126,
      "count": 14353,
      "max": [
        1.0,
        0.486277490854263,
        0.575516581535339
      ],
      "min": [
        -1.0,
        -0.486277520656586,
        -0.722991168498993
      ],
      "type": "VEC3"
    },
    {
      "bufferView": 30,
      "componentType": 5126,
      "count": 14353,
      "type": "VEC3"
    },
    {
      "bufferView": 31,
      "componentType": 5126,
      "count": 14353,
      "type": "VEC2"
    }
  ],
  "asset": {
    "generator": "Substance Painter 2017.4.2",
    "version": "2.0"
  },
  "bufferViews": [
    {
      "buffer": 0,
      "byteLength": 6768,
      "target": 34963
    },
    {
      "buffer": 0,
      "byteLength": 5124,
      "byteOffset": 6768,
      "target": 34962
    },
    {
      "buffer": 0,
      "byteLength": 5124,
      "byteOffset": 11892,
      "target": 34962
    },
    {
      "buffer": 0,
      "byteLength": 3416,
      "byteOffset": 17016,
      "target": 34962
    },
    {
      "buffer": 0,
      "byteLength": 18816,
      "byteOffset": 20432,
      "target": 34963
    },
    {
      "buffer": 0,
      "byteLength": 10440,
      "byteOffset": 39248,
      "target": 34962
    },
    {
      "buffer": 0,
      "byteLength": 10440,
      "byteOffset": 49688,
      "target": 34962
    },
    {
      "buffer": 0,
      "byteLength": 6960,
      "byteOffset": 60128,
      "target": 34962
    },
    {
      "buffer": 0,
      "byteLength": 3684,
      "byteOffset": 67088,
      "target": 34963
    },
    {
      "buffer": 0,
      "byteLength": 3612,
      "byteOffset": 70772,
      "target": 34962
    },
    {
      "buffer": 0,
      "byteLength": 3612,
      "byteOffset": 74384,
      "target": 34962
    },
    {
      "buffer": 0,
      "byteLength": 2408,
      "byteOffset": 77996,
      "target": 34962
    },
    {
      "buffer": 0,
      "byteLength": 3684,
      "byteOffset": 80404,
      "target": 34963
    },
    {
      "buffer": 0,
      "byteLength": 3636,
      "byteOffset": 84088,
      "target": 34962
    },
    {
      "buffer": 0,
      "byteLength": 3636,
      "byteOffset": 87724,
      "target": 34962
    },
    {
      "buffer": 0,
      "byteLength": 2424,
      "byteOffset": 91360,
      "target": 34962
    },
    {
      "buffer": 0,
      "byteLength": 8160,
      "byteOffset": 93784,
      "target": 34963
    },
    {
      "buffer": 0,
      "byteLength": 7176,
      "byteOffset": 101944,
      "target": 34962
    },
    {
      "buffer": 0,
      "byteLength": 7176,
      "byteOffset": 109120,
      "target": 34962
    },
    {
      "buffer": 0,
      "byteLength": 4784,
      "byteOffset": 116296,
      "target": 34962
    },
    {
      "buffer": 0,
      "byteLength": 8160,
      "byteOffset": 121080,
      "target": 34963
    },
    {
      "buffer": 0,
      "byteLength": 7176,
      "byteOffset": 129240,
      "target": 34962
    },
    {
      "buffer": 0,
      "byteLength": 7176,
      "byteOffset": 136416,
      "target": 34962
    },
    {
      "buffer": 0,
      "byteLength": 4784,
      "byteOffset": 143592,
      "target": 34962
    },
    {
      "buffer": 0,
      "byteLength": 20736,
      "byteOffset": 148376,
      "target": 34963
    },
    {
      "buffer": 0,
      "byteLength": 14136,
      "byteOffset": 169112,
      "target": 34962
    },
    {
      "buffer": 0,
      "byteLength": 14136,
      "byteOffset": 183248,
      "target": 34962
    },
    {
      "buffer": 0,
      "byteLength": 9424,
      "byteOffset": 197384,
      "target": 34962
    },
    {
      "buffer": 0,
      "byteLength": 257328,
      "byteOffset": 206808,
      "target": 34963
    },
    {
      "buffer": 0,
      "byteLength": 172236,
      "byteOffset": 464136,
      "target": 34962
    },
    {
      "buffer": 0,
      "byteLength": 172236,
      "byteOffset": 636372,
      "target": 34962
    },
    {
      "buffer": 0,
      "byteLength": 114824,
      "byteOffset": 808608,
      "target": 34962
    }
  ],
  "buffers": [
    {
      "byteLength": 923432,
      "uri": "plane.bin"
    }
  ],
  "images": [
    {
      "uri": "Default_baseColor.png"
    },
    {
      "uri": "Default_occlusionRoughnessMetallic.png"
    },
    {
      "uri": "Default_normal.png"
    }
  ],
  "materials": [
    {
      "alphaMode": "BLEND",
      "name": "Default",
      "normalTexture": {
        "index": 2
      },
      "occlusionTexture": {
        "index": 1
      },
      "pbrMetallicRoughness": {
        "baseColorTexture": {
          "index": 0
        },
        "metallicRoughnessTexture": {
          "index": 1
        }
      }
    }
  ],
  "meshes": [
    {
      "name": "rudder",
      "primitives": [
        {
          "attributes": {
            "NORMAL": 2,
            "POSITION": 1,
            "TEXCOORD_0": 3
          },
          "indices": 0,
          "material": 0,
          "mode": 4
        }
      ]
    },
    {
      "name": "canopi",
      "primitives": [
        {
          "attributes": {
            "NORMAL": 6,
            "POSITION": 5,
            "TEXCOORD_0": 7
          },
          "indices": 4,
          "material": 0,
          "mode": 4
        }
      ]
    },
    {
      "name": "tail_L1",
      "primitives": [
        {
          "attributes": {
            "NORMAL": 10,
            "POSITION": 9,
            "TEXCOORD_0": 11
          },
          "indices": 8,
          "material": 0,
          "mode": 4
        }
      ]
    },
    {
      "name": "tail_L",
      "primitives": [
        {
          "attributes": {
            "NORMAL": 14,
            "POSITION": 13,
            "TEXCOORD_0": 15
          },
          "indices": 12,
          "material": 0,
          "mode": 4
        }
      ]
    },
    {
      "name": "aileron_R",
      "primitives": [
        {
          "attributes": {
            "NORMAL": 18,
            "POSITION": 17,
            "TEXCOORD_0": 19
          },
          "indices": 16,
          "material": 0,
          "mode": 4
        }
      ]
    },
    {
      "name": "aileron_L",
      "primitives": [
        {
          "attributes": {
            "NORMAL": 22,
            "POSITION": 21,
            "TEXCOORD_0": 23
          },
          "indices": 20,
          "material": 0,
          "mode": 4
        }
      ]
    },
    {
      "name": "propeller1",
      "primitives": [
        {
          "attributes": {
            "NORMAL": 26,
            "POSITION": 25,
            "TEXCOORD_0": 27
          },
          "indices": 24,
          "material": 0,
          "mode": 4
        }
      ]
    },
    {
      "name": "Body",
      "primitives": [
        {
          "attributes": {
            "NORMAL": 30,
            "POSITION": 29,
            "TEXCOORD_0": 31
          },
          "indices": 28,
          "material": 0,
          "mode": 4
        }
      ]
    }
  ],
  "nodes": [
    {
      "children": [
        1,
        3,
        5,
        7,
        9,
        11,
        13,
        15
      ],
      "name": "root",
      "scale": [
        4.98904752731323,
        4.98904752731323,
        4.98904752731323
      ],
      "translation": [
        0.0,
        -0.155450820922852,
        -0.296804666519165
      ]
    },
    {
      "children": [
        2
      ],
      "name": "rudder"
    },
    {
      "mesh": 0,
      "name": "rudder"
    },
    {
      "children": [
        4
      ],
      "name": "canopi"
    },
    {
      "mesh": 1,
      "name": "canopi"
    },
    {
      "children": [
        6
      ],
      "name": "tail_L1"
    },
    {
      "mesh": 2,
      "name": "tail_L1"
    },
    {
      "children": [
        8
      ],
      "name": "tail_L"
    },
    {
      "mesh": 3,
      "name": "tail_L"
    },
    {
      "children": [
        10
      ],
      "name": "aileron_R"
    },
    {
      "mesh": 4,
      "name": "aileron_R"
    },
    {
      "children": [
        12
      ],
      "name": "aileron_L"
    },
    {
      "mesh": 5,
      "name": "aileron_L"
    },
    {
      "children": [
        14
      ],
      "name": "propeller1"
    },
    {
      "mesh": 6,
      "name": "propeller1"
    },
    {
      "children": [
        16
      ],
      "name": "Body"
    },
    {
      "mesh": 7,
      "name": "Body"
    }
  ],
  "samplers": [
    {
      "magFilter": 9729,
      "minFilter": 9985,
      "wrapS": 10497,
      "wrapT": 10497
    }
  ],
  "scene": 0,
  "scenes": [
    {
      "name": "Scene",
      "nodes": [
        0
      ]
    }
  ],
  "textures": [
    {
      "sampler": 0,
      "source": 0
    },
    {
      "sampler": 0,
      "source": 1
    },
    {
      "sampler": 0,
      "source": 2
    }
  ]
}